#N canvas 0 23 885 422 10;
#X obj 430 34 cnv 17 406 250 empty empty empty 20 12 0 14 -170537 -66577
0;
#N canvas 456 115 697 327 set.parameters 0;
#X obj 12 12 param.change;
#X obj 12 56 param.set 1;
#X obj 12 34 r \$0-sndspd;
#X obj 92 144 param.set 2;
#X obj 92 34 r \$0-sndstp;
#X obj 92 56 / 127;
#X obj 92 78 * 32;
#X obj 92 122 i;
#X obj 92 100 + 0.5;
#X obj 172 34 r \$0-sndbts;
#X obj 172 56 / 127;
#X obj 172 78 * 100;
#X obj 172 100 i;
#X obj 172 122 param.set 3;
#X obj 252 56 / 127;
#X obj 252 78 * 100;
#X obj 252 100 i;
#X obj 252 122 param.set 4;
#X obj 252 34 r \$0-sndrte;
#X obj 332 34 r \$0-sndvel;
#X obj 332 56 param.set 5;
#X obj 502 34 r \$0-sndnbxnot;
#X obj 172 188 / 127;
#X obj 172 210 * 100;
#X obj 172 232 i;
#X obj 252 188 / 127;
#X obj 252 210 * 100;
#X obj 252 232 i;
#X obj 332 166 r \$0-sndavl;
#X obj 252 166 r \$0-sndart;
#X obj 172 166 r \$0-sndacc;
#X obj 592 34 r \$0-sndnbxant;
#X obj 422 34 r \$0-snddur;
#X obj 422 56 / 127;
#X obj 422 100 i;
#X obj 422 188 / 127;
#X obj 422 232 i;
#X obj 422 144 param.set 6;
#X obj 502 56 param.set 7;
#X obj 592 56 param.set 8;
#X obj 172 254 param.set 9;
#X obj 252 254 param.set 10;
#X obj 332 188 param.set 11;
#X obj 422 276 param.set 12;
#X obj 422 166 r \$0-sndadr;
#X obj 422 122 + 10;
#X obj 422 254 + 10;
#X obj 422 78 * 80;
#X obj 422 210 * 80;
#X connect 2 0 1 0;
#X connect 4 0 5 0;
#X connect 5 0 6 0;
#X connect 6 0 8 0;
#X connect 7 0 3 0;
#X connect 8 0 7 0;
#X connect 9 0 10 0;
#X connect 10 0 11 0;
#X connect 11 0 12 0;
#X connect 12 0 13 0;
#X connect 14 0 15 0;
#X connect 15 0 16 0;
#X connect 16 0 17 0;
#X connect 18 0 14 0;
#X connect 19 0 20 0;
#X connect 21 0 38 0;
#X connect 22 0 23 0;
#X connect 23 0 24 0;
#X connect 24 0 40 0;
#X connect 25 0 26 0;
#X connect 26 0 27 0;
#X connect 27 0 41 0;
#X connect 28 0 42 0;
#X connect 29 0 25 0;
#X connect 30 0 22 0;
#X connect 31 0 39 0;
#X connect 32 0 33 0;
#X connect 33 0 47 0;
#X connect 34 0 45 0;
#X connect 35 0 48 0;
#X connect 36 0 46 0;
#X connect 44 0 35 0;
#X connect 45 0 37 0;
#X connect 46 0 43 0;
#X connect 47 0 34 0;
#X connect 48 0 36 0;
#X restore 10 289 pd set.parameters;
#N canvas 348 91 816 361 get.parameters 0;
#X obj 12 13 param.get 1;
#X obj 12 57 s \$0-rcvspd;
#X msg 12 35 set \$1;
#X msg 92 101 set \$1;
#X obj 92 13 param.get 2;
#X obj 92 123 s \$0-rcvstp;
#X obj 92 35 / 32;
#X obj 92 57 * 127;
#X obj 92 79 i;
#X msg 172 101 set \$1;
#X obj 172 57 * 127;
#X obj 172 79 i;
#X obj 172 123 s \$0-rcvbts;
#X obj 172 13 param.get 3;
#X obj 172 35 / 100;
#X msg 252 101 set \$1;
#X obj 252 57 * 127;
#X obj 252 79 i;
#X obj 252 35 / 100;
#X obj 252 13 param.get 4;
#X obj 252 123 s \$0-rcvrte;
#X msg 332 35 set \$1;
#X obj 332 13 param.get 5;
#X obj 332 57 s \$0-rcvvel;
#X msg 502 35 set \$1;
#X obj 502 57 s \$0-rcvnbxnot;
#X msg 592 35 set \$1;
#X obj 592 57 s \$0-rcvnbxant;
#X msg 172 255 set \$1;
#X obj 172 211 * 127;
#X obj 172 233 i;
#X obj 172 189 / 100;
#X msg 252 255 set \$1;
#X obj 252 211 * 127;
#X obj 252 233 i;
#X obj 252 189 / 100;
#X msg 332 189 set \$1;
#X obj 332 211 s \$0-rcvavl;
#X obj 252 277 s \$0-rcvart;
#X obj 172 277 s \$0-rcvacc;
#X obj 422 13 param.get 6;
#X obj 422 79 * 127;
#X obj 422 101 i;
#X msg 422 123 set \$1;
#X obj 422 145 s \$0-rcvdur;
#X obj 422 233 * 127;
#X obj 422 255 i;
#X msg 422 277 set \$1;
#X obj 502 13 param.get 7;
#X obj 592 13 param.get 8;
#X obj 172 167 param.get 9;
#X obj 252 167 param.get 10;
#X obj 332 167 param.get 11;
#X obj 422 167 param.get 12;
#X obj 422 299 s \$0-rcvadr;
#X obj 422 189 - 10;
#X obj 422 35 - 10;
#X obj 422 211 / 80;
#X obj 422 57 / 80;
#X connect 0 0 2 0;
#X connect 2 0 1 0;
#X connect 3 0 5 0;
#X connect 4 0 6 0;
#X connect 6 0 7 0;
#X connect 7 0 8 0;
#X connect 8 0 3 0;
#X connect 9 0 12 0;
#X connect 10 0 11 0;
#X connect 11 0 9 0;
#X connect 13 0 14 0;
#X connect 14 0 10 0;
#X connect 15 0 20 0;
#X connect 16 0 17 0;
#X connect 17 0 15 0;
#X connect 18 0 16 0;
#X connect 19 0 18 0;
#X connect 21 0 23 0;
#X connect 22 0 21 0;
#X connect 24 0 25 0;
#X connect 26 0 27 0;
#X connect 28 0 39 0;
#X connect 29 0 30 0;
#X connect 30 0 28 0;
#X connect 31 0 29 0;
#X connect 32 0 38 0;
#X connect 33 0 34 0;
#X connect 34 0 32 0;
#X connect 35 0 33 0;
#X connect 36 0 37 0;
#X connect 40 0 56 0;
#X connect 41 0 42 0;
#X connect 42 0 43 0;
#X connect 43 0 44 0;
#X connect 45 0 46 0;
#X connect 46 0 47 0;
#X connect 47 0 54 0;
#X connect 48 0 24 0;
#X connect 49 0 26 0;
#X connect 50 0 31 0;
#X connect 51 0 35 0;
#X connect 52 0 36 0;
#X connect 53 0 55 0;
#X connect 55 0 57 0;
#X connect 56 0 58 0;
#X connect 57 0 45 0;
#X connect 58 0 41 0;
#X restore 10 309 pd get.parameters;
#X text 274 293 EUKLID by Miguel Moreno;
#X text 280 308 fb.com/MikeMorenoAudio;
#N canvas 489 53 674 665 parameters 0;
#X obj 12 61 i;
#X obj 12 186 *;
#X obj 102 147 r \$0-stp;
#X obj 12 208 + 0.5;
#X obj 12 230 i;
#X obj 102 169 t b f;
#X obj 12 350 *;
#X obj 102 311 r \$0-stp;
#X obj 12 372 + 0.5;
#X obj 12 394 i;
#X obj 102 333 t b f;
#X msg 12 519 set \$1;
#X obj 92 497 s \$0-rcvvel;
#X obj 202 186 *;
#X obj 202 208 + 0.5;
#X obj 202 230 i;
#X obj 282 169 t b f;
#X obj 202 350 *;
#X obj 202 372 + 0.5;
#X obj 202 394 i;
#X obj 282 333 t b f;
#X msg 212 519 set \$1;
#X obj 282 147 r \$0-bts;
#X obj 282 311 r \$0-bts;
#X obj 292 497 s \$0-rcvavl;
#X obj 12 105 s \$0-rcvnbxstp;
#X obj 202 252 s \$0-rcvnbxacc;
#X obj 202 416 s \$0-rcvnbxart;
#X obj 212 541 s \$0-rcvnbxavl;
#X obj 12 541 s \$0-rcvnbxvel;
#X obj 12 416 s \$0-rcvnbxrte;
#X obj 12 252 s \$0-rcvnbxbts;
#X obj 12 497 i;
#X obj 212 497 i;
#X obj 110 247 t b f;
#X obj 110 289 s \$0-unt;
#X obj 137 269 s \$0-bts;
#N canvas 291 55 441 221 note2name 0;
#X obj 380 73 int;
#X msg 285 105 A;
#X msg 345 105 B;
#X msg 12 105 C;
#X msg 75 105 D;
#X msg 135 105 E;
#X obj 380 105 t b f;
#X obj 12 149 pack s f;
#X obj 12 78 select 0 1 2 3 4 5 6 7 8 9 10 11;
#X obj 12 56 mod 12;
#X msg 163 105 F;
#X msg 227 105 G;
#X obj 380 51 / 12;
#X msg 45 105 C#;
#X msg 104 105 Eb;
#X msg 196 105 F#;
#X msg 256 105 G#;
#X msg 315 105 Bb;
#X obj 407 130 - 1;
#X obj 12 12 inlet;
#X obj 12 193 outlet;
#X obj 12 34 t f f;
#X msg 12 171 symbol \$1\$2;
#X connect 0 0 6 0;
#X connect 1 0 7 0;
#X connect 2 0 7 0;
#X connect 3 0 7 0;
#X connect 4 0 7 0;
#X connect 5 0 7 0;
#X connect 6 0 7 0;
#X connect 6 1 18 0;
#X connect 7 0 22 0;
#X connect 8 0 3 0;
#X connect 8 1 13 0;
#X connect 8 2 4 0;
#X connect 8 3 14 0;
#X connect 8 4 5 0;
#X connect 8 5 10 0;
#X connect 8 6 15 0;
#X connect 8 7 11 0;
#X connect 8 8 16 0;
#X connect 8 9 1 0;
#X connect 8 10 17 0;
#X connect 8 11 2 0;
#X connect 9 0 8 0;
#X connect 10 0 7 0;
#X connect 11 0 7 0;
#X connect 12 0 0 0;
#X connect 13 0 7 0;
#X connect 14 0 7 0;
#X connect 15 0 7 0;
#X connect 16 0 7 0;
#X connect 17 0 7 0;
#X connect 18 0 7 1;
#X connect 19 0 21 0;
#X connect 21 0 9 0;
#X connect 21 1 12 0;
#X connect 22 0 20 0;
#X restore 297 34 pd note2name;
#X obj 297 56 s \$0-rcvsymnot;
#N canvas 291 55 441 221 note2name 0;
#X obj 380 73 int;
#X msg 285 105 A;
#X msg 345 105 B;
#X msg 12 105 C;
#X msg 75 105 D;
#X msg 135 105 E;
#X obj 380 105 t b f;
#X obj 12 149 pack s f;
#X obj 12 78 select 0 1 2 3 4 5 6 7 8 9 10 11;
#X obj 12 56 mod 12;
#X msg 163 105 F;
#X msg 227 105 G;
#X obj 380 51 / 12;
#X msg 45 105 C#;
#X msg 104 105 Eb;
#X msg 196 105 F#;
#X msg 256 105 G#;
#X msg 315 105 Bb;
#X obj 407 130 - 1;
#X obj 12 12 inlet;
#X obj 12 193 outlet;
#X obj 12 34 t f f;
#X msg 12 171 symbol \$1\$2;
#X connect 0 0 6 0;
#X connect 1 0 7 0;
#X connect 2 0 7 0;
#X connect 3 0 7 0;
#X connect 4 0 7 0;
#X connect 5 0 7 0;
#X connect 6 0 7 0;
#X connect 6 1 18 0;
#X connect 7 0 22 0;
#X connect 8 0 3 0;
#X connect 8 1 13 0;
#X connect 8 2 4 0;
#X connect 8 3 14 0;
#X connect 8 4 5 0;
#X connect 8 5 10 0;
#X connect 8 6 15 0;
#X connect 8 7 11 0;
#X connect 8 8 16 0;
#X connect 8 9 1 0;
#X connect 8 10 17 0;
#X connect 8 11 2 0;
#X connect 9 0 8 0;
#X connect 10 0 7 0;
#X connect 11 0 7 0;
#X connect 12 0 0 0;
#X connect 13 0 7 0;
#X connect 14 0 7 0;
#X connect 15 0 7 0;
#X connect 16 0 7 0;
#X connect 17 0 7 0;
#X connect 18 0 7 1;
#X connect 19 0 21 0;
#X connect 21 0 9 0;
#X connect 21 1 12 0;
#X connect 22 0 20 0;
#X restore 297 103 pd note2name;
#X obj 297 125 s \$0-rcvsymant;
#X obj 300 247 t b f;
#X obj 300 289 s \$0-unt;
#X obj 327 269 s \$0-acc;
#X obj 110 411 t b f;
#X obj 110 453 s \$0-unt;
#X obj 137 433 s \$0-rte;
#X obj 300 411 t b f;
#X obj 300 453 s \$0-unt;
#X obj 327 433 s \$0-art;
#X obj 110 78 t b f;
#X obj 110 120 s \$0-unt;
#X obj 137 100 s \$0-stp;
#X obj 397 12 r \$0-sndspd;
#X obj 525 29 sel 0 1 2 3 4 5 6 7;
#X obj 525 112 symbol;
#X obj 525 134 s \$0-rcvsymspd;
#X msg 538 73 1/4;
#X msg 525 95 1/2;
#X msg 622 73 1/32;
#X msg 606 95 1/24;
#X msg 594 51 1/16;
#X msg 580 73 1/12;
#X msg 566 95 1/8;
#X msg 552 51 1/6;
#X obj 397 29 sel 0 1 2 3 4 5 6 7;
#X msg 397 51 0.5;
#X msg 410 72 1;
#X msg 424 94 1.5;
#X msg 438 51 2;
#X msg 452 72 3;
#X msg 466 94 4;
#X msg 480 51 6;
#X msg 494 72 8;
#X obj 397 111 s \$0-spd;
#X obj 525 12 param.get 1;
#X obj 12 39 param.get 2;
#X obj 12 142 param.get 3;
#X obj 12 164 / 100;
#X obj 12 328 / 100;
#X obj 12 306 param.get 4;
#X obj 12 475 param.get 5;
#X obj 92 475 r \$0-sndnbxvel;
#X obj 292 475 r \$0-sndnbxavl;
#X msg 12 83 set \$1;
#X obj 199 12 r \$0-sndnbxstp;
#X obj 199 34 / 32;
#X obj 199 56 * 127;
#X obj 199 78 i;
#X obj 199 100 change;
#X obj 199 122 s \$0-rcvstp;
#X obj 202 164 / 100;
#X obj 202 328 / 100;
#X obj 297 12 param.get 7;
#X obj 297 81 param.get 8;
#X obj 202 142 param.get 9;
#X obj 202 306 param.get 10;
#X obj 212 475 param.get 11;
#X msg 12 607 set \$1;
#X msg 212 607 set \$1;
#X obj 12 585 i;
#X obj 212 585 i;
#X obj 12 563 param.get 6;
#X obj 12 629 s \$0-rcvnbxdur;
#X obj 212 629 s \$0-rcvnbxadr;
#X obj 212 563 param.get 12;
#X obj 397 143 r \$0-bpm;
#X obj 459 165 r \$0-spd;
#X msg 397 165 60000 \$1;
#X obj 397 187 /;
#X obj 397 204 /;
#X obj 459 187 t b f;
#X obj 569 165 r \$0-spd;
#X obj 507 204 /;
#X obj 569 187 t b f;
#X obj 424 209 param.get 6;
#X obj 424 231 / 100;
#X obj 424 253 t b f;
#X obj 397 270 *;
#X obj 397 292 s \$0-dur;
#X obj 534 231 / 100;
#X obj 534 253 t b f;
#X obj 507 270 *;
#X obj 507 292 s \$0-adr;
#X obj 534 209 param.get 12;
#X connect 0 0 84 0;
#X connect 0 0 50 0;
#X connect 1 0 3 0;
#X connect 2 0 5 0;
#X connect 3 0 4 0;
#X connect 4 0 31 0;
#X connect 4 0 34 0;
#X connect 5 0 1 0;
#X connect 5 1 1 1;
#X connect 6 0 8 0;
#X connect 7 0 10 0;
#X connect 8 0 9 0;
#X connect 9 0 30 0;
#X connect 9 0 44 0;
#X connect 10 0 6 0;
#X connect 10 1 6 1;
#X connect 11 0 29 0;
#X connect 13 0 14 0;
#X connect 14 0 15 0;
#X connect 15 0 26 0;
#X connect 15 0 41 0;
#X connect 16 0 13 0;
#X connect 16 1 13 1;
#X connect 17 0 18 0;
#X connect 18 0 19 0;
#X connect 19 0 27 0;
#X connect 19 0 47 0;
#X connect 20 0 17 0;
#X connect 20 1 17 1;
#X connect 21 0 28 0;
#X connect 22 0 16 0;
#X connect 23 0 20 0;
#X connect 32 0 11 0;
#X connect 33 0 21 0;
#X connect 34 0 35 0;
#X connect 34 1 36 0;
#X connect 37 0 38 0;
#X connect 39 0 40 0;
#X connect 41 0 42 0;
#X connect 41 1 43 0;
#X connect 44 0 45 0;
#X connect 44 1 46 0;
#X connect 47 0 48 0;
#X connect 47 1 49 0;
#X connect 50 0 51 0;
#X connect 50 1 52 0;
#X connect 53 0 54 0;
#X connect 53 0 65 0;
#X connect 54 0 58 0;
#X connect 54 1 57 0;
#X connect 54 2 64 0;
#X connect 54 3 63 0;
#X connect 54 4 62 0;
#X connect 54 5 61 0;
#X connect 54 6 60 0;
#X connect 54 7 59 0;
#X connect 55 0 56 0;
#X connect 57 0 55 0;
#X connect 58 0 55 0;
#X connect 59 0 55 0;
#X connect 60 0 55 0;
#X connect 61 0 55 0;
#X connect 62 0 55 0;
#X connect 63 0 55 0;
#X connect 64 0 55 0;
#X connect 65 0 66 0;
#X connect 65 1 67 0;
#X connect 65 2 68 0;
#X connect 65 3 69 0;
#X connect 65 4 70 0;
#X connect 65 5 71 0;
#X connect 65 6 72 0;
#X connect 65 7 73 0;
#X connect 66 0 74 0;
#X connect 67 0 74 0;
#X connect 68 0 74 0;
#X connect 69 0 74 0;
#X connect 70 0 74 0;
#X connect 71 0 74 0;
#X connect 72 0 74 0;
#X connect 73 0 74 0;
#X connect 75 0 65 0;
#X connect 75 0 54 0;
#X connect 76 0 0 0;
#X connect 77 0 78 0;
#X connect 78 0 1 0;
#X connect 79 0 6 0;
#X connect 80 0 79 0;
#X connect 81 0 32 0;
#X connect 82 0 12 0;
#X connect 83 0 24 0;
#X connect 84 0 25 0;
#X connect 85 0 86 0;
#X connect 86 0 87 0;
#X connect 87 0 88 0;
#X connect 88 0 89 0;
#X connect 89 0 90 0;
#X connect 91 0 13 0;
#X connect 92 0 17 0;
#X connect 93 0 37 0;
#X connect 94 0 39 0;
#X connect 95 0 91 0;
#X connect 96 0 92 0;
#X connect 97 0 33 0;
#X connect 98 0 103 0;
#X connect 99 0 104 0;
#X connect 100 0 98 0;
#X connect 101 0 99 0;
#X connect 102 0 100 0;
#X connect 105 0 101 0;
#X connect 106 0 108 0;
#X connect 107 0 111 0;
#X connect 108 0 109 0;
#X connect 109 0 110 0;
#X connect 109 0 113 0;
#X connect 110 0 118 0;
#X connect 111 0 110 0;
#X connect 111 1 110 1;
#X connect 112 0 114 0;
#X connect 113 0 122 0;
#X connect 114 0 113 0;
#X connect 114 1 113 1;
#X connect 115 0 116 0;
#X connect 116 0 117 0;
#X connect 117 0 118 0;
#X connect 117 1 118 1;
#X connect 118 0 119 0;
#X connect 120 0 121 0;
#X connect 121 0 122 0;
#X connect 121 1 122 1;
#X connect 122 0 123 0;
#X connect 124 0 120 0;
#X restore 10 329 pd parameters;
#N canvas 234 23 365 755 gui.tgl.circle 0;
#X obj 12 257 % 32;
#X obj 225 852 pack f \$0;
#X msg 225 874 symbol \$2-rcvtgl\$1;
#X obj 12 891 s;
#X obj 12 196 t f f, f 36;
#X obj 12 56 until;
#X obj 12 78 i;
#X obj 12 100 % 32;
#X obj 39 78 + 1;
#X obj 39 100 sel 32;
#X obj 27 213 r \$0-stp;
#X obj 12 235 *;
#X obj 12 279 <;
#X obj 12 12 r \$0-unt;
#X obj 12 301 t f f;
#X obj 60 318 sel 1;
#X obj 60 384 i;
#X obj 90 384 + 1;
#X obj 60 450 *;
#X obj 60 472 %;
#X obj 60 494 <;
#X obj 60 516 + 1;
#X obj 12 533 *;
#X obj 12 34 t b b;
#X obj 59 51 s \$0-rst;
#X obj 75 340 r \$0-rst;
#X msg 75 362 0;
#X obj 75 428 r \$0-bts;
#X obj 92 455 r \$0-stp;
#X msg 12 809 color 22 22;
#X msg 27 831 color 0 0;
#X obj 12 555 t f f;
#X obj 60 638 i;
#X obj 90 638 + 1;
#X obj 60 682 *;
#X obj 60 704 %;
#X obj 60 726 <;
#X obj 75 594 r \$0-rst;
#X msg 75 616 0;
#X obj 60 660 +;
#X obj 132 621 * -1;
#X obj 147 687 r \$0-bts;
#X obj 132 599 r \$0-art;
#X obj 92 665 r \$0-acc;
#X obj 60 572 sel 2;
#X obj 12 743 +;
#X msg 87 726 0;
#X obj 12 787 sel 0 1 2 3;
#X obj 132 643 mod;
#X msg 43 853 color 23 23;
#X msg 64 874 color 13 13;
#X obj 123 848 table \$0-euc 32;
#X obj 137 423 s \$0-wrt;
#X obj 82 760 sel 0;
#X obj 109 804 pack;
#X obj 150 787 r \$0-wrt;
#X obj 109 826 tabwrite \$0-euc;
#X obj 109 782 - 1;
#X obj 60 406 t f f;
#X obj 204 401 pack;
#X obj 204 445 tabwrite \$0-tgl;
#X obj 204 467 table \$0-tgl 32;
#X msg 204 423 \$2 \$1;
#X obj 12 765 t f b;
#X obj 89 223 t b f;
#X obj 89 245 t b b;
#X msg 116 267 color 22 22;
#X obj 89 284 s;
#X obj 196 240 pack f \$0;
#X msg 196 267 symbol \$2-rcvtgl\$1;
#X obj 84 83 r \$0-rte;
#X obj 12 122 +;
#X obj 12 144 % 32;
#X obj 84 105 * 2;
#X connect 0 0 12 0;
#X connect 1 0 2 0;
#X connect 2 0 3 1;
#X connect 4 0 11 0;
#X connect 4 1 1 0;
#X connect 4 1 59 1;
#X connect 5 0 6 0;
#X connect 6 0 7 0;
#X connect 7 0 8 0;
#X connect 7 0 71 0;
#X connect 8 0 6 1;
#X connect 8 0 9 0;
#X connect 9 0 5 1;
#X connect 10 0 11 1;
#X connect 10 0 12 1;
#X connect 11 0 0 0;
#X connect 12 0 14 0;
#X connect 13 0 23 0;
#X connect 14 0 22 0;
#X connect 14 1 15 0;
#X connect 15 0 16 0;
#X connect 16 0 17 0;
#X connect 16 0 58 0;
#X connect 16 0 59 0;
#X connect 17 0 16 1;
#X connect 18 0 19 0;
#X connect 19 0 20 0;
#X connect 20 0 21 0;
#X connect 21 0 22 1;
#X connect 22 0 31 0;
#X connect 23 0 5 0;
#X connect 23 1 24 0;
#X connect 25 0 26 0;
#X connect 26 0 16 1;
#X connect 27 0 18 1;
#X connect 27 0 20 1;
#X connect 28 0 19 1;
#X connect 29 0 3 0;
#X connect 30 0 3 0;
#X connect 31 0 45 0;
#X connect 31 1 44 0;
#X connect 32 0 33 0;
#X connect 32 0 39 0;
#X connect 33 0 32 1;
#X connect 34 0 35 0;
#X connect 35 0 36 0;
#X connect 36 0 45 1;
#X connect 37 0 38 0;
#X connect 38 0 32 1;
#X connect 39 0 34 0;
#X connect 40 0 48 0;
#X connect 41 0 35 1;
#X connect 41 0 48 1;
#X connect 42 0 40 0;
#X connect 43 0 34 1;
#X connect 43 0 36 1;
#X connect 44 0 32 0;
#X connect 44 1 46 0;
#X connect 45 0 53 0;
#X connect 45 0 63 0;
#X connect 46 0 45 1;
#X connect 47 0 29 0;
#X connect 47 1 30 0;
#X connect 47 2 49 0;
#X connect 47 3 50 0;
#X connect 48 0 39 1;
#X connect 49 0 3 0;
#X connect 50 0 3 0;
#X connect 53 1 57 0;
#X connect 54 0 56 0;
#X connect 55 0 54 1;
#X connect 57 0 54 0;
#X connect 58 0 18 0;
#X connect 58 1 52 0;
#X connect 59 0 62 0;
#X connect 62 0 60 0;
#X connect 63 0 47 0;
#X connect 63 1 3 0;
#X connect 64 0 65 0;
#X connect 64 1 68 0;
#X connect 65 0 67 0;
#X connect 65 1 66 0;
#X connect 66 0 67 0;
#X connect 68 0 69 0;
#X connect 69 0 67 1;
#X connect 70 0 73 0;
#X connect 71 0 72 0;
#X connect 72 0 4 0;
#X connect 73 0 71 1;
#X restore 120 309 pd gui.tgl.circle;
#N canvas 234 23 330 755 play 0;
#X msg 172 677 \$2 \$3 \$4;
#X obj 42 12 r playhead;
#X obj 42 122 i;
#X obj 42 144 change;
#X obj 42 56 unpack;
#X obj 92 171 r \$0-stp;
#X obj 42 188 mod;
#X obj 42 545 tabread \$0-euc;
#X obj 42 567 sel 1 2, f 44;
#X obj 42 699 makenote;
#X obj 42 166 +;
#X obj 87 149 r \$0-rte;
#X obj 42 78 spigot;
#X obj 145 479 pack f \$0;
#X msg 145 501 symbol \$2-rcvtgl\$1;
#X obj 12 518 s;
#X obj 12 413 sel 0 1 2 3;
#X obj 12 391 t b f;
#X obj 61 237 tabread \$0-tgl;
#X obj 118 352 t b f;
#X obj 81 281 t f b;
#X obj 81 303 f;
#X obj 81 325 tabread \$0-euc;
#X obj 42 210 t f f f;
#X obj 12 276 t f b;
#X obj 12 298 f;
#X obj 91 259 t f f;
#X obj 12 347 list prepend;
#X obj 12 369 unpack;
#X msg 12 435 color 0 0;
#X msg 27 457 color 23 23;
#X msg 43 479 color 13 13;
#X msg 59 501 color 11 11;
#X obj 92 83 r \$0-spd;
#X obj 42 100 *;
#X msg 118 374 3;
#X obj 88 611 param.get 5;
#X obj 154 100 s \$0-unt;
#X obj 154 78 sel 0;
#X obj 106 61 change;
#X obj 42 655 pack f f f f;
#X obj 172 655 pack f f f f;
#X msg 42 677 \$2 \$3 \$4;
#X obj 65 589 param.get 7;
#X obj 195 589 param.get 8;
#X obj 218 611 param.get 11;
#X obj 42 34 route position playing bpm;
#X obj 214 61 change;
#X obj 214 83 s \$0-bpm;
#X obj 111 633 r \$0-dur;
#X obj 241 633 r \$0-adr;
#X obj 172 699 makenote;
#X obj 42 721 poly 1 1;
#X obj 172 721 poly 1 1;
#X obj 64 738 noteout;
#X msg 124 699 stop;
#X msg 124 716 stop;
#X obj 234 721 notein;
#X connect 0 0 51 0;
#X connect 1 0 46 0;
#X connect 2 0 3 0;
#X connect 3 0 10 0;
#X connect 4 0 12 0;
#X connect 5 0 6 1;
#X connect 6 0 23 0;
#X connect 7 0 8 0;
#X connect 8 0 40 0;
#X connect 8 1 41 0;
#X connect 9 0 52 0;
#X connect 9 0 56 0;
#X connect 9 1 52 1;
#X connect 10 0 6 0;
#X connect 11 0 10 1;
#X connect 12 0 34 0;
#X connect 13 0 14 0;
#X connect 14 0 15 1;
#X connect 16 0 29 0;
#X connect 16 1 30 0;
#X connect 16 2 31 0;
#X connect 16 3 32 0;
#X connect 17 0 15 0;
#X connect 17 1 16 0;
#X connect 18 0 26 0;
#X connect 19 0 35 0;
#X connect 19 1 13 0;
#X connect 20 0 21 1;
#X connect 20 1 21 0;
#X connect 21 0 22 0;
#X connect 22 0 27 1;
#X connect 23 0 7 0;
#X connect 23 1 18 0;
#X connect 23 2 20 0;
#X connect 24 0 25 1;
#X connect 24 1 25 0;
#X connect 25 0 27 0;
#X connect 26 0 24 0;
#X connect 26 1 19 0;
#X connect 27 0 28 0;
#X connect 28 0 17 0;
#X connect 28 1 13 0;
#X connect 29 0 15 0;
#X connect 30 0 15 0;
#X connect 31 0 15 0;
#X connect 32 0 15 0;
#X connect 33 0 34 1;
#X connect 34 0 2 0;
#X connect 35 0 17 0;
#X connect 36 0 40 2;
#X connect 38 0 37 0;
#X connect 39 0 38 0;
#X connect 39 0 12 1;
#X connect 40 0 42 0;
#X connect 41 0 0 0;
#X connect 42 0 9 0;
#X connect 43 0 40 1;
#X connect 44 0 41 1;
#X connect 45 0 41 2;
#X connect 46 0 4 0;
#X connect 46 1 39 0;
#X connect 46 2 47 0;
#X connect 47 0 48 0;
#X connect 49 0 40 3;
#X connect 50 0 41 3;
#X connect 51 0 53 0;
#X connect 51 0 55 0;
#X connect 51 1 53 1;
#X connect 52 1 54 0;
#X connect 52 2 54 1;
#X connect 53 1 54 0;
#X connect 53 2 54 1;
#X connect 55 0 52 0;
#X connect 56 0 53 0;
#X connect 57 0 54 0;
#X connect 57 1 54 1;
#X restore 120 289 pd play;
#X obj 430 10 cnv 23 406 23 empty empty empty 20 12 0 14 -258113 -66577
0;
#X obj 435 62 cnv 217 217 217 empty empty empty 20 12 0 14 -1 -66577
0;
#X obj 240 55 hsl 128 14 0 127 0 0 \$0-sndbts \$0-rcvbts BEATS -2 -6
0 10 -143491 -262144 -1 0 1;
#X obj 375 55 nbx 3 14 0 32 0 0 \$0-sndnbxbts \$0-rcvnbxbts empty 0
-8 0 10 -143491 -262144 -1 0 256;
#X obj 240 85 hsl 128 14 0 127 0 0 \$0-sndrte \$0-rcvrte ROTATE -2
-6 0 10 -143491 -262144 -1 0 1;
#X obj 375 85 nbx 3 14 0 32 0 0 \$0-sndnbxrte \$0-rcvnbxrte empty 0
-8 0 10 -143491 -262144 -1 0 256;
#X obj 240 115 hsl 128 14 0 127 0 0 \$0-sndvel \$0-rcvvel VELOCITY
-2 -6 0 10 -143491 -262144 -1 0 1;
#X obj 375 115 nbx 3 14 0 127 0 0 \$0-sndnbxvel \$0-rcvnbxvel empty
0 -8 0 10 -143491 -262144 -1 0 256;
#X obj 240 175 hsl 128 14 0 127 0 0 \$0-sndacc \$0-rcvacc ACCENTS -2
-6 0 10 -258113 -262144 -1 0 1;
#X obj 375 175 nbx 3 14 0 32 0 0 \$0-sndnbxacc \$0-rcvnbxacc empty
0 -8 0 10 -258113 -262144 -1 0 256;
#X obj 240 205 hsl 128 14 0 127 0 0 \$0-sndart \$0-rcvart ACCENT ROTATE
-2 -6 0 10 -258113 -262144 -1 0 1;
#X obj 375 205 nbx 3 14 0 32 0 0 \$0-sndnbxart \$0-rcvnbxart empty
0 -8 0 10 -258113 -262144 -1 0 256;
#X obj 240 235 hsl 128 14 0 127 0 0 \$0-sndavl \$0-rcvavl ACCENT VELOCITY
-2 -6 0 10 -258113 -262144 -1 0 1;
#X obj 375 235 nbx 3 14 0 127 0 0 \$0-sndnbxavl \$0-rcvnbxavl empty
0 -8 0 10 -258113 -262144 -1 0 256;
#X obj 15 48 hradio 14 1 0 8 \$0-sndspd \$0-rcvspd SPEED 0 -6 0 10
-262144 -1 -1 5;
#X obj 131 48 cnv 14 38 14 empty empty empty 20 12 0 14 -262144 -66577
0;
#X symbolatom 131 48 6 0 0 0 - #0-rcvsymspd #0-sndsymspd, f 6;
#X obj 116 68 tgl 15 0 \$0-sndtgl0 \$0-rcvtgl0 empty 17 7 0 10 -262144
-262144 -1 0 1;
#X obj 134 70 tgl 15 0 \$0-sndtgl1 \$0-rcvtgl1 empty 17 7 0 10 -1 -1
-1 0 1;
#X obj 152 76 tgl 15 0 \$0-sndtgl2 \$0-rcvtgl2 empty 17 7 0 10 -262144
-262144 -1 0 1;
#X obj 168 85 tgl 15 0 \$0-sndtgl3 \$0-rcvtgl3 empty 17 7 0 10 -1 -1
-1 0 1;
#X obj 183 96 tgl 15 0 \$0-sndtgl4 \$0-rcvtgl4 empty 17 7 0 10 -262144
-262144 -1 0 1;
#X obj 194 111 tgl 15 0 \$0-sndtgl5 \$0-rcvtgl5 empty 17 7 0 10 -1
-1 -1 0 1;
#X obj 203 128 tgl 15 0 \$0-sndtgl6 \$0-rcvtgl6 empty 17 7 0 10 -143491
-143491 -1 0 1;
#X obj 209 145 tgl 15 0 \$0-sndtgl7 \$0-rcvtgl7 empty 17 7 0 10 -1
-1 -1 0 1;
#X obj 211 163 tgl 15 0 \$0-sndtgl8 \$0-rcvtgl8 empty 17 7 0 10 -262144
-262144 -1 0 1;
#X obj 209 181 tgl 15 0 \$0-sndtgl9 \$0-rcvtgl9 empty 17 7 0 10 -1
-1 -1 0 1;
#X obj 203 199 tgl 15 0 \$0-sndtgl10 \$0-rcvtgl10 empty 17 7 0 10 -262144
-262144 -1 0 1;
#X obj 194 215 tgl 15 0 \$0-sndtgl11 \$0-rcvtgl11 empty 17 7 0 10 -1
-1 -1 0 1;
#X obj 183 230 tgl 15 0 \$0-sndtgl12 \$0-rcvtgl12 empty 17 7 0 10 -262144
-262144 -1 0 1;
#X obj 168 241 tgl 15 0 \$0-sndtgl13 \$0-rcvtgl13 empty 17 7 0 10 -1
-1 -1 0 1;
#X obj 152 250 tgl 15 0 \$0-sndtgl14 \$0-rcvtgl14 empty 17 7 0 10 -262144
-262144 -1 0 1;
#X obj 134 256 tgl 15 0 \$0-sndtgl15 \$0-rcvtgl15 empty 17 7 0 10 -1
-1 -1 0 1;
#X obj 116 258 tgl 15 0 \$0-sndtgl16 \$0-rcvtgl16 empty 17 7 0 10 -262144
-262144 -1 0 1;
#X obj 98 256 tgl 15 0 \$0-sndtgl17 \$0-rcvtgl17 empty 17 7 0 10 -1
-1 -1 0 1;
#X obj 80 250 tgl 15 0 \$0-sndtgl18 \$0-rcvtgl18 empty 17 7 0 10 -262144
-262144 -1 0 1;
#X obj 64 241 tgl 15 0 \$0-sndtgl19 \$0-rcvtgl19 empty 17 7 0 10 -1
-1 -1 0 1;
#X obj 49 230 tgl 15 0 \$0-sndtgl20 \$0-rcvtgl20 empty 17 7 0 10 -262144
-262144 -1 0 1;
#X obj 38 215 tgl 15 0 \$0-sndtgl21 \$0-rcvtgl21 empty 17 7 0 10 -1
-1 -1 0 1;
#X obj 29 199 tgl 15 0 \$0-sndtgl22 \$0-rcvtgl22 empty 17 7 0 10 -262144
-262144 -1 0 1;
#X obj 23 181 tgl 15 0 \$0-sndtgl23 \$0-rcvtgl23 empty 17 7 0 10 -1
-1 -1 0 1;
#X obj 21 163 tgl 15 0 \$0-sndtgl24 \$0-rcvtgl24 empty 17 7 0 10 -262144
-262144 -1 0 1;
#X obj 23 145 tgl 15 0 \$0-sndtgl25 \$0-rcvtgl25 empty 17 7 0 10 -1
-1 -1 0 1;
#X obj 29 128 tgl 15 0 \$0-sndtgl26 \$0-rcvtgl26 empty 17 7 0 10 -262144
-262144 -1 0 1;
#X obj 38 111 tgl 15 0 \$0-sndtgl27 \$0-rcvtgl27 empty 17 7 0 10 -1
-1 -1 0 1;
#X obj 49 96 tgl 15 0 \$0-sndtgl28 \$0-rcvtgl28 empty 17 7 0 10 -262144
-262144 -1 0 1;
#X obj 64 85 tgl 15 0 \$0-sndtgl29 \$0-rcvtgl29 empty 17 7 0 10 -1
-1 -1 0 1;
#X obj 80 76 tgl 15 0 \$0-sndtgl30 \$0-rcvtgl30 empty 17 7 0 10 -262144
-262144 -1 0 1;
#X obj 98 70 tgl 15 0 \$0-sndtgl31 \$0-rcvtgl31 empty 17 7 0 10 -1
-1 -1 0 1;
#X obj 60 163 hsl 128 14 0 127 0 0 \$0-sndstp \$0-rcvstp STEPS -2 -6
0 10 -262144 -1 -262144 0 1;
#X obj 154 149 nbx 3 14 0 32 0 0 \$0-sndnbxstp \$0-rcvnbxstp empty
0 -8 0 10 -262144 -1 -1 0 256;
#X obj 90 123 nbx 3 17 21 108 0 0 \$0-sndnbxnot \$0-rcvnbxnot MIDI NOTE
0 -6 0 10 -143491 -262144 -262144 21 256;
#X obj 132 125 cnv 14 25 14 empty empty empty 26 12 0 14 -262144 -66577
0;
#X symbolatom 132 125 4 0 0 0 - #0-rcvsymnot #0-sndsymnot, f 4;
#X obj 90 195 nbx 3 17 21 108 0 0 \$0-sndnbxant \$0-rcvnbxant MIDI NOTE
0 -6 0 10 -258113 -262144 -262144 21 256;
#X obj 132 197 cnv 14 25 14 empty empty empty 26 12 0 14 -262144 -66577
0;
#X symbolatom 132 197 4 0 0 0 - #0-rcvsymant #0-sndsymant, f 4;
#X obj 240 145 hsl 128 14 0 127 0 0 \$0-snddur \$0-rcvdur DURATION
-2 -6 0 10 -143491 -262144 -1 0 1;
#X obj 375 145 nbx 3 14 0 127 0 0 \$0-sndnbxdur \$0-rcvnbxdur empty
0 -8 0 10 -143491 -262144 -1 0 256;
#X obj 240 265 hsl 128 14 0 127 0 0 \$0-sndadr \$0-rcvadr ACCENT DURATION
-2 -6 0 10 -258113 -262144 -1 0 1;
#X obj 375 265 nbx 3 14 0 127 0 0 \$0-sndnbxadr \$0-rcvnbxadr empty
0 -8 0 10 -258113 -262144 -1 0 256;
#X coords 0 -1 1 1 406 274 1 10 10;
